<?xml version="1.0" encoding="UTF-8" standalone="no"?>
<!-- Created with Inkscape (http://www.inkscape.org/) -->

<svg
   xmlns:dc="http://purl.org/dc/elements/1.1/"
   xmlns:cc="http://creativecommons.org/ns#"
   xmlns:rdf="http://www.w3.org/1999/02/22-rdf-syntax-ns#"
   xmlns:svg="http://www.w3.org/2000/svg"
   xmlns="http://www.w3.org/2000/svg"
   xmlns:sodipodi="http://sodipodi.sourceforge.net/DTD/sodipodi-0.dtd"
   xmlns:inkscape="http://www.inkscape.org/namespaces/inkscape"
   id="svg3693"
   version="1.1"
   inkscape:version="0.91+devel+osxmenu r12859"
   xml:space="preserve"
   width="50"
   height="40"
   viewBox="0 0 329.69345 176.63401"
   sodipodi:docname="hand_isometric.svg"><metadata
     id="metadata3699"><rdf:RDF><cc:Work
         rdf:about=""><dc:format>image/svg+xml</dc:format><dc:type
           rdf:resource="http://purl.org/dc/dcmitype/StillImage" /><dc:title></dc:title></cc:Work></rdf:RDF></metadata><defs
     id="defs3697" /><sodipodi:namedview
     pagecolor="#ffffff"
     bordercolor="#666666"
     borderopacity="1"
     objecttolerance="10"
     gridtolerance="10"
     guidetolerance="10"
     inkscape:pageopacity="0"
     inkscape:pageshadow="2"
     inkscape:window-width="1204"
     inkscape:window-height="751"
     id="namedview3695"
     showgrid="false"
     fit-margin-top="2"
     fit-margin-left="2"
     fit-margin-right="2"
     fit-margin-bottom="2"
     inkscape:zoom="1.5286329"
     inkscape:cx="309.35892"
     inkscape:cy="67.460698"
     inkscape:window-x="0"
     inkscape:window-y="23"
     inkscape:window-maximized="0"
     inkscape:current-layer="g3701" /><g
     id="g3701"
     inkscape:groupmode="layer"
     inkscape:label="puntero"
     transform="matrix(1.3333333,0,0,-1.3333333,-104.2024,581.37612)"><g
       id="g3703"
       transform="matrix(0.81810879,0,0,0.81810879,-1347.5368,-1228.622)"><path
         d="m 1978.4287,1964.4942 -0.083,18.4902 7.6988,4.165 0,-18.496 -7.6154,-4.1592 z"
         style="fill:#393536;fill-opacity:1;fill-rule:evenodd;stroke:none"
         id="path3705"
         inkscape:connector-curvature="0" /><path
         d="m 1993.4812,1946.6345 -0.083,18.4902 7.6988,4.1649 0,-18.4959 -7.6154,-4.1592 z"
         style="fill:#393536;fill-opacity:1;fill-rule:evenodd;stroke:none"
         id="path3707"
         inkscape:connector-curvature="0" /><path
         d="m 1917.0039,1902.0981 -7.6155,-4.1592 -15.0177,8.6697 -7.5088,-4.3348 -15.6194,9.017 -7.8771,-4.5474 -15.6194,9.017 -7.7424,-4.4696 -7.41,4.2779 -7.9264,-4.5761 -22.6613,13.0824 0,18.496 15.0354,8.6799 -45.156,26.0686 0,18.496 -0.2335,8.6904 15.0177,8.6698 7.41,-4.2778 8.1106,4.6823 30.7718,-17.7647 15.1523,8.7476 7.2753,-4.2001 23.1283,13.3519 7.5088,-4.3348 15.853,9.152 8.1106,-4.6823 7.0417,4.0652 7.7423,-4.4697 7.8771,4.5474 53.6665,-30.9816 -7.8771,-4.5475 22.8948,-13.2172 -7.9759,-4.6045 22.5623,-13.0253 0,-18.4959 -76.3276,-44.0641 -22.5904,13.0415 z"
         style="fill:#4f4c4d;fill-opacity:1;fill-rule:nonzero;stroke:none"
         id="path3709"
         inkscape:connector-curvature="0" /><path
         d="m 1917.0039,1920.5941 22.5904,-13.0414 76.3276,44.0639 -22.5623,13.0253 7.9759,4.6045 -22.8948,13.2172 7.8771,4.5475 -53.6665,30.9816 -7.8771,-4.5474 -7.7423,4.4697 -7.0417,-4.0652 -8.1106,4.6823 -15.853,-9.152 -7.5088,4.3348 -23.1283,-13.3519 -7.2753,4.2001 -15.1523,-8.7476 -30.7718,17.7647 -8.1106,-4.6823 -7.41,4.2778 -15.0177,-8.6698 7.6436,-4.4126 -7.4101,-4.2778 68.5854,-39.5944 -7.7424,-4.4696 -7.41,4.2777 -23.3124,-13.4582 22.6613,-13.0823 7.9264,4.5759 7.41,-4.2778 7.7424,4.4697 15.6194,-9.017 7.8771,4.5473 15.6194,-9.0171 7.5088,4.3349 15.0177,-8.6697 7.6155,4.1592 z"
         style="fill:#0f0e0c;fill-opacity:1;fill-rule:evenodd;stroke:none"
         id="path3711"
         inkscape:connector-curvature="0" /><path
         d="m 1939.8596,1916.3388 61.1754,35.3165 -15.386,8.8824 7.6436,4.4126 -23.1282,13.3519 7.9758,4.6045 -53.433,30.8469 -7.9758,-4.6045 -7.7424,4.4697 -7.6436,-4.4126 23.1283,-13.352 -7.7423,-4.4696 -31.0054,17.8993 -15.1523,-8.7475 23.0294,-13.2949 -7.7423,-4.4696 -30.5383,17.6298 -15.1524,-8.7475 30.5383,-17.6298 -7.7424,-4.4696 -68.5853,39.5943 -14.9188,-8.6127 99.2224,-57.2811 -8.1106,-4.6822 -22.6612,13.0822 -7.5089,-4.3348 -7.9758,4.6045 -15.1523,-8.7476 15.4846,-8.9392 7.5089,4.3349 7.1765,-4.1431 7.6434,4.4127 15.386,-8.8823 7.9759,4.6045 16.0865,-9.2868 7.6434,4.4126 14.3172,-8.2652 7.1517,4.1288 16.21,-9.2155 z"
         style="fill:#ffffff;fill-opacity:1;fill-rule:evenodd;stroke:#231f20;stroke-width:0.4258;stroke-linecap:butt;stroke-linejoin:miter;stroke-miterlimit:3.86369991;stroke-dasharray:none;stroke-opacity:1"
         id="path3713"
         inkscape:connector-curvature="0" /><path
         d="m 1843.1699,1933.6989 0.7682,-0.4435 0.6334,0.3658 -0.7682,0.4434 -0.6334,-0.3657 z"
         style="fill:#0f0e0c;fill-opacity:1;fill-rule:nonzero;stroke:#231f20;stroke-width:0.4258;stroke-linecap:butt;stroke-linejoin:miter;stroke-miterlimit:3.86369991;stroke-dasharray:none;stroke-opacity:1"
         id="path3715"
         inkscape:connector-curvature="0" /><path
         d="m 1824.5402,1929.2371 0.127,-18.2445 7.9264,4.5761 0,18.4959 -8.0534,-4.8275 z"
         style="fill:#393536;fill-opacity:1;fill-rule:evenodd;stroke:none"
         id="path3717"
         inkscape:connector-curvature="0" /><path
         d="m 1839.9008,1929.6662 7.6803,4.6985 0.1649,-18.6043 -7.7424,-4.4696 -0.1028,18.3754 z"
         style="fill:#393536;fill-opacity:1;fill-rule:evenodd;stroke:none"
         id="path3719"
         inkscape:connector-curvature="0" /><path
         d="m 1863.3933,1906.8177 -0.028,18.4218 7.8771,4.5473 0,-18.496 -7.8492,-4.4731 z"
         style="fill:#393536;fill-opacity:1;fill-rule:evenodd;stroke:none"
         id="path3721"
         inkscape:connector-curvature="0" /><path
         d="m 1886.8875,1902.2586 -0.2165,18.4398 7.6997,4.4062 0,-18.496 -7.4832,-4.35 z"
         style="fill:#393536;fill-opacity:1;fill-rule:evenodd;stroke:none"
         id="path3723"
         inkscape:connector-curvature="0" /><path
         d="m 1909.3884,1897.9389 -0.083,18.4902 7.6989,4.165 0,-18.496 -7.6155,-4.1592 z"
         style="fill:#393536;fill-opacity:1;fill-rule:evenodd;stroke:none"
         id="path3725"
         inkscape:connector-curvature="0" /><path
         d="m 1939.5943,1889.0566 -0.1896,18.4048 76.5172,44.1552 0,-18.4959 -76.3276,-44.0641 z"
         style="fill:#393536;fill-opacity:1;fill-rule:evenodd;stroke:none"
         id="path3727"
         inkscape:connector-curvature="0" /></g></g></svg>